<?xml version="1.0" encoding="utf-8"?>
<!-- Generator: Adobe Illustrator 26.0.1, SVG Export Plug-In . SVG Version: 6.00 Build 0)  -->
<svg version="1.1"
	 id="svg2" inkscape:export-filename="droidshash.png" inkscape:export-xdpi="16.875" inkscape:export-ydpi="16.875" inkscape:version="0.91 r13725" sodipodi:docname="droidshash.svg" xmlns:cc="http://creativecommons.org/ns#" xmlns:dc="http://purl.org/dc/elements/1.1/" xmlns:inkscape="http://www.inkscape.org/namespaces/inkscape" xmlns:rdf="http://www.w3.org/1999/02/22-rdf-syntax-ns#" xmlns:sodipodi="http://sodipodi.sourceforge.net/DTD/sodipodi-0.dtd" xmlns:svg="http://www.w3.org/2000/svg"
	 xmlns="http://www.w3.org/2000/svg" xmlns:xlink="http://www.w3.org/1999/xlink" x="0px" y="0px" viewBox="0 0 192 192"
	 style="enable-background:new 0 0 192 192;" xml:space="preserve">
<style type="text/css">
	.st0{fill:#164194;}
	.st1{fill:#F39200;}
	.st2{fill:none;}
	.st3{font-family:'Athelas-Regular';}
	.st4{font-size:121.9869px;}
	.st5{font-size:118.6452px;}
</style>
<sodipodi:namedview  bordercolor="#666666" borderopacity="1.0" id="base" inkscape:current-layer="layer1" inkscape:cx="83.81698" inkscape:cy="94.240351" inkscape:document-units="px" inkscape:pageopacity="0.0" inkscape:pageshadow="2" inkscape:window-height="1047" inkscape:window-maximized="0" inkscape:window-width="1735" inkscape:window-x="181" inkscape:window-y="41" inkscape:zoom="3.959798" pagecolor="#ffffff" showgrid="false" units="px">
	</sodipodi:namedview>
<path class="st0" d="M165.9,179.3H106c-6.6,0-12-5.4-12-12v-61.4c0-6.6,5.4-12,12-12h59.9c6.6,0,12,5.4,12,12v61.4
	C177.9,173.9,172.5,179.3,165.9,179.3z"/>
<path class="st0" d="M126,88.6l0.6-8.5c0,0,0.5-0.8-0.6-0.8c-4-0.1-8.7,0-8.5-3.2c0.1-3.3,2.1-3.9,3.2-3.9s4,0.1,4,0.1l-0.3-14
	l-12.4-15.6c-0.1-0.1-0.2-0.1-0.2-0.1c-0.2,0-0.6-2.1-0.6-4.6c0-3.3,5.1-5.4,5.1-5.4h8.6l-0.1-3.6h1l0.3-1h19.4v1.1l1.5-0.1v3.8
	l8-0.2c0,0,1.7,0.7,4.1,3.9c2.4,3.1,1.6,3.3,0,6c-1.7,2.9-11.7,15.8-11.7,15.8l-0.1,14.2c0,0,6.7-1.6,6.9,3.5
	c0.1,4.2-3.4,3.2-3.4,3.2h-5.3l0.5,9.4H126z"/>
<path class="st1" d="M83,97H19.1c-6.6,0-12-5.4-12-12V21.2c0-6.6,5.4-12,12-12H83c6.6,0,12,5.4,12,12V85C95,91.6,89.6,97,83,97z"/>
<rect x="5.4" y="7.1" class="st2" width="92.9" height="95.1"/>
<text transform="matrix(1 0 0 1 5.3997 92.4971)" class="st0 st3 st4">D</text>
<rect x="105" y="91.2" class="st2" width="77.7" height="85.3"/>
<text transform="matrix(0.9729 0 0 1 105.015 175.0192)" class="st1 st3 st5">S</text>
<polygon class="st0" points="126.2,12.6 126.2,15.1 125.3,15.1 125.3,18.4 126.2,18.4 126.2,20.8 127.7,20.8 131.7,18.1 134,17.7 
	134,18.6 134.9,18.6 134.9,20.8 131.6,24.4 131.4,25.3 133.9,25.3 133.6,26.4 138.1,26.4 138,25.4 140.8,25.5 140.8,24.3 
	137.6,21.1 137.6,18.7 138.2,18.6 138.2,17.7 140.8,17.9 144.8,20.8 145.9,20.8 145.9,17.7 146.7,17.5 146.7,15.8 145.8,15.8 
	146.1,12.6 144.9,12.6 140,15.8 138.1,15.8 138.1,15.1 137.3,15.1 137.5,12.6 141.2,8 139.5,8 139,7.1 133.1,7.1 133,8.1 131.6,8 
	131.7,9.3 135,12.3 135.2,15.1 131.2,15.1 127.2,12.3 "/>
<path class="st1" d="M61.2,102.2l-0.6,8.7c0,0-0.5,0.8,0.6,0.8c4.1,0.1,8.8,0,8.7,3.3c-0.1,3.4-2.1,4-3.3,4s-4.1-0.1-4.1-0.1
	l0.3,14.2l12.7,15.8c0.1,0.1,0.2,0.1,0.3,0.1c0.2,0,0.6,2.1,0.6,4.7c0,3.4-5.2,5.4-5.2,5.4h-8.8l0.1,3.6h-1l-0.3,1H41.3v-1.1
	l-1.5,0.1v-3.9l-8.2,0.2c0,0-1.7-0.7-4.2-4c-2.4-3.1-1.6-3.3,0-6.1C29,146.1,39.2,133,39.2,133l0.1-14.4c0,0-6.9,1.6-7-3.5
	c-0.1-4.2,3.5-3.3,3.5-3.3h5.4l-0.5-9.5H61.2z"/>
<polygon class="st1" points="61.1,179.3 61.1,176.7 62,176.7 62,173.5 61.1,173.5 61.1,171 59.5,171 55.4,173.7 53.1,174.1 
	53.1,173.2 52.2,173.2 52.2,171 55.6,167.4 55.7,166.5 53.2,166.5 53.5,165.3 48.9,165.3 49,166.3 46.1,166.2 46.1,167.5 
	49.4,170.7 49.4,173.1 48.8,173.2 48.8,174.1 46.1,174 42.1,171 40.9,171 40.9,174.1 40.1,174.4 40.1,176.1 41,176.1 40.8,179.3 
	42,179.3 46.9,176.1 48.9,176.1 48.9,176.7 49.7,176.7 49.5,179.3 45.7,184 47.4,184 48,184.9 54,184.9 54.1,183.9 55.6,184 
	55.4,182.7 52,179.6 51.9,176.7 56,176.7 60,179.6 "/>
</svg>
