<?xml version="1.0" encoding="utf-8"?>
<!-- Generator: Adobe Illustrator 25.4.1, SVG Export Plug-In . SVG Version: 6.00 Build 0)  -->
<svg version="1.1"
	 id="svg2" inkscape:export-filename="droidshash.png" inkscape:export-xdpi="16.875" inkscape:export-ydpi="16.875" inkscape:version="0.91 r13725" sodipodi:docname="droidshash.svg" xmlns:cc="http://creativecommons.org/ns#" xmlns:dc="http://purl.org/dc/elements/1.1/" xmlns:inkscape="http://www.inkscape.org/namespaces/inkscape" xmlns:rdf="http://www.w3.org/1999/02/22-rdf-syntax-ns#" xmlns:sodipodi="http://sodipodi.sourceforge.net/DTD/sodipodi-0.dtd" xmlns:svg="http://www.w3.org/2000/svg"
	 xmlns="http://www.w3.org/2000/svg" xmlns:xlink="http://www.w3.org/1999/xlink" x="0px" y="0px" viewBox="0 0 192 192"
	 style="enable-background:new 0 0 192 192;" xml:space="preserve">
<style type="text/css">
	.st0{clip-path:url(#SVGID_00000163036503947503384520000011218392201903721396_);fill:#54BBAB;}
	.st1{clip-path:url(#SVGID_00000171707167994371491380000017479047218542731410_);fill:#E30613;}
	.st2{clip-path:url(#SVGID_00000171707167994371491380000017479047218542731410_);}
	.st3{clip-path:url(#SVGID_00000041275365971573213930000008327786851791415222_);fill:none;stroke:#1D1D1B;stroke-width:0.202;}
	.st4{filter:url(#Adobe_OpacityMaskFilter);}
	.st5{clip-path:url(#SVGID_00000041275365971573213930000008327786851791415222_);}
	
		.st6{clip-path:url(#SVGID_00000041275365971573213930000008327786851791415222_);mask:url(#SVGID_00000072247372574161304260000004884598902585300911_);}
	.st7{opacity:0.75;clip-path:url(#SVGID_00000096019373513484607250000009214936910334455230_);fill:#1D1D1B;}
	.st8{fill:none;stroke:#FFFFFF;stroke-width:1.28;stroke-linejoin:round;stroke-miterlimit:1;}
	.st9{font-family:'MarketDeco';}
	.st10{font-size:38.3472px;}
	.st11{fill:#FFFFFF;}
	.st12{filter:url(#Adobe_OpacityMaskFilter_00000170960206077756342110000002671243748894753714_);}
	.st13{clip-path:url(#SVGID_00000041294117372676336770000003338161465007335810_);}
	
		.st14{clip-path:url(#SVGID_00000041294117372676336770000003338161465007335810_);mask:url(#SVGID_00000077326762031797387800000014891883755295046281_);}
	.st15{opacity:0.75;clip-path:url(#SVGID_00000013874078405533511120000005164554279167451297_);fill:#1D1D1B;}
	.st16{clip-path:url(#SVGID_00000171707167994371491380000017479047218542731410_);fill:#FFFFFF;}
	.st17{fill:#E30613;}
	.st18{font-family:'AberforthTiles-Regular';}
	.st19{font-size:15.9637px;}
	.st20{font-family:'FuturaStd-CondensedBold';}
	.st21{font-size:6.7953px;}
	.st22{filter:url(#Adobe_OpacityMaskFilter_00000085247113970148623560000005515472283744610710_);}
	.st23{mask:url(#SVGID_00000036210243788268564840000000992408016320960403_);}
	.st24{opacity:0.75;clip-path:url(#SVGID_00000067233663335704901010000001737630149979411336_);fill:#1D1D1B;}
	.st25{filter:url(#Adobe_OpacityMaskFilter_00000028298482134612990600000008571834930345020603_);}
	.st26{mask:url(#SVGID_00000036973824965046665620000002826031906036053936_);}
	.st27{opacity:0.75;clip-path:url(#SVGID_00000113333896924562491200000008696016605407239347_);fill:#1D1D1B;}
	.st28{fill:#0000CC;stroke:#FFFFFF;stroke-width:2;stroke-miterlimit:10;}
	.st29{font-family:'TheWantersDEMO';}
	.st30{font-size:73.4123px;}
	.st31{fill:#0000CC;stroke:#FFFFFF;stroke-miterlimit:10;}
	.st32{font-size:29.3649px;}
</style>
<sodipodi:namedview  bordercolor="#666666" borderopacity="1.0" id="base" inkscape:current-layer="layer1" inkscape:cx="83.81698" inkscape:cy="94.240351" inkscape:document-units="px" inkscape:pageopacity="0.0" inkscape:pageshadow="2" inkscape:window-height="1047" inkscape:window-maximized="0" inkscape:window-width="1735" inkscape:window-x="181" inkscape:window-y="41" inkscape:zoom="3.959798" pagecolor="#ffffff" showgrid="false" units="px">
	</sodipodi:namedview>
<g>
	<defs>
		<rect id="SVGID_1_" x="2.1" y="2.1" width="187.8" height="187.8"/>
	</defs>
	<clipPath id="SVGID_00000157993657766883973200000000577672644145788564_">
		<use xlink:href="#SVGID_1_"  style="overflow:visible;"/>
	</clipPath>
	<path style="clip-path:url(#SVGID_00000157993657766883973200000000577672644145788564_);fill:#54BBAB;" d="M21.4,2.1
		c-10.6,0-19.3,8.6-19.3,19.3v149.3c0,10.6,8.6,19.3,19.3,19.3h149.3c10.6,0,19.3-8.6,19.3-19.3V21.4c0-10.6-8.6-19.3-19.3-19.3
		H21.4z"/>
</g>
<g>
	<defs>
		<rect id="SVGID_00000016036707624876640970000000180798939729159602_" x="19.2" y="71.8" width="152.2" height="110.1"/>
	</defs>
	<clipPath id="SVGID_00000082353706412931378020000003152070524031142320_">
		<use xlink:href="#SVGID_00000016036707624876640970000000180798939729159602_"  style="overflow:visible;"/>
	</clipPath>
	
		<rect x="90.5" y="74.2" transform="matrix(0.7071 -0.7071 0.7071 0.7071 -27.9637 90.5895)" style="clip-path:url(#SVGID_00000082353706412931378020000003152070524031142320_);fill:#E30613;" width="9.7" height="9.7"/>
	
		<rect x="104.2" y="87.9" transform="matrix(0.7071 -0.7071 0.7071 0.7071 -33.6181 104.2873)" style="clip-path:url(#SVGID_00000082353706412931378020000003152070524031142320_);fill:#E30613;" width="9.7" height="9.7"/>
	
		<rect x="117.9" y="101.6" transform="matrix(0.7071 -0.7071 0.7071 0.7071 -39.2892 117.9784)" style="clip-path:url(#SVGID_00000082353706412931378020000003152070524031142320_);fill:#E30613;" width="9.7" height="9.7"/>
	
		<rect x="131.6" y="115.2" transform="matrix(0.7071 -0.7071 0.7071 0.7071 -44.9435 131.6763)" style="clip-path:url(#SVGID_00000082353706412931378020000003152070524031142320_);fill:#E30613;" width="9.7" height="9.7"/>
	
		<rect x="90.5" y="87.9" transform="matrix(0.7071 -0.7071 0.7071 0.7071 -37.6779 94.5858)" style="clip-path:url(#SVGID_00000082353706412931378020000003152070524031142320_);fill:#E30613;" width="9.7" height="9.7"/>
	
		<rect x="104.2" y="101.6" transform="matrix(0.7071 -0.7071 0.7071 0.7071 -43.3324 108.2836)" style="clip-path:url(#SVGID_00000082353706412931378020000003152070524031142320_);fill:#E30613;" width="9.7" height="9.7"/>
	
		<rect x="117.9" y="115.3" transform="matrix(0.7071 -0.7071 0.7071 0.7071 -49.0033 121.9747)" style="clip-path:url(#SVGID_00000082353706412931378020000003152070524031142320_);fill:#E30613;" width="9.7" height="9.7"/>
	
		<rect x="131.6" y="129" transform="matrix(0.7071 -0.7071 0.7071 0.7071 -54.6578 135.6726)" style="clip-path:url(#SVGID_00000082353706412931378020000003152070524031142320_);fill:#E30613;" width="9.7" height="9.7"/>
	
		<rect x="76.8" y="87.9" transform="matrix(0.7071 -0.7071 0.7071 0.7071 -41.6879 84.9047)" style="clip-path:url(#SVGID_00000082353706412931378020000003152070524031142320_);fill:#E30613;" width="9.7" height="9.7"/>
	
		<rect x="90.5" y="101.6" transform="matrix(0.7071 -0.7071 0.7071 0.7071 -47.3424 98.6026)" style="clip-path:url(#SVGID_00000082353706412931378020000003152070524031142320_);fill:#E30613;" width="9.7" height="9.7"/>
	
		<rect x="104.2" y="115.3" transform="matrix(0.7071 -0.7071 0.7071 0.7071 -53.0133 112.2937)" style="clip-path:url(#SVGID_00000082353706412931378020000003152070524031142320_);fill:#E30613;" width="9.7" height="9.7"/>
	
		<rect x="117.9" y="129" transform="matrix(0.7071 -0.7071 0.7071 0.7071 -58.6678 125.9915)" style="clip-path:url(#SVGID_00000082353706412931378020000003152070524031142320_);fill:#E30613;" width="9.7" height="9.7"/>
	
		<rect x="76.8" y="101.7" transform="matrix(0.7071 -0.7071 0.7071 0.7071 -51.4021 88.901)" style="clip-path:url(#SVGID_00000082353706412931378020000003152070524031142320_);fill:#E30613;" width="9.7" height="9.7"/>
	
		<rect x="90.5" y="115.3" transform="matrix(0.7071 -0.7071 0.7071 0.7071 -57.0565 102.5989)" style="clip-path:url(#SVGID_00000082353706412931378020000003152070524031142320_);fill:#E30613;" width="9.7" height="9.7"/>
	
		<rect x="104.2" y="129" transform="matrix(0.7071 -0.7071 0.7071 0.7071 -62.7276 116.2899)" style="clip-path:url(#SVGID_00000082353706412931378020000003152070524031142320_);fill:#E30613;" width="9.7" height="9.7"/>
	
		<rect x="117.9" y="142.7" transform="matrix(0.7071 -0.7071 0.7071 0.7071 -68.382 129.9878)" style="clip-path:url(#SVGID_00000082353706412931378020000003152070524031142320_);fill:#E30613;" width="9.7" height="9.7"/>
	
		<rect x="63.1" y="101.7" transform="matrix(0.7071 -0.7071 0.7071 0.7071 -55.4603 79.2425)" style="clip-path:url(#SVGID_00000082353706412931378020000003152070524031142320_);fill:#E30613;" width="9.7" height="9.7"/>
	
		<rect x="76.8" y="115.4" transform="matrix(0.7071 -0.7071 0.7071 0.7071 -61.1148 92.9403)" style="clip-path:url(#SVGID_00000082353706412931378020000003152070524031142320_);fill:#E30613;" width="9.7" height="9.7"/>
	
		<rect x="90.5" y="129.1" transform="matrix(0.7071 -0.7071 0.7071 0.7071 -66.7858 106.6314)" style="clip-path:url(#SVGID_00000082353706412931378020000003152070524031142320_);fill:#E30613;" width="9.7" height="9.7"/>
	
		<rect x="104.2" y="142.8" transform="matrix(0.7071 -0.7071 0.7071 0.7071 -72.4402 120.3292)" style="clip-path:url(#SVGID_00000082353706412931378020000003152070524031142320_);fill:#E30613;" width="9.7" height="9.7"/>
	
		<rect x="63.1" y="115.5" transform="matrix(0.7071 -0.7071 0.7071 0.7071 -65.1745 83.2387)" style="clip-path:url(#SVGID_00000082353706412931378020000003152070524031142320_);fill:#E30613;" width="9.7" height="9.7"/>
	
		<rect x="76.8" y="129.1" transform="matrix(0.7071 -0.7071 0.7071 0.7071 -70.829 96.9366)" style="clip-path:url(#SVGID_00000082353706412931378020000003152070524031142320_);fill:#E30613;" width="9.7" height="9.7"/>
	
		<rect x="90.4" y="142.8" transform="matrix(0.7071 -0.7071 0.7071 0.7071 -76.5 110.6277)" style="clip-path:url(#SVGID_00000082353706412931378020000003152070524031142320_);fill:#E30613;" width="9.7" height="9.7"/>
	
		<rect x="104.2" y="156.5" transform="matrix(0.7071 -0.7071 0.7071 0.7071 -82.1544 124.3255)" style="clip-path:url(#SVGID_00000082353706412931378020000003152070524031142320_);fill:#E30613;" width="9.7" height="9.7"/>
	
		<rect x="49.4" y="115.5" transform="matrix(0.7071 -0.7071 0.7071 0.7071 -69.1845 73.5577)" style="clip-path:url(#SVGID_00000082353706412931378020000003152070524031142320_);fill:#E30613;" width="9.7" height="9.7"/>
	
		<rect x="63.1" y="129.1" transform="matrix(0.7071 -0.7071 0.7071 0.7071 -74.839 87.2556)" style="clip-path:url(#SVGID_00000082353706412931378020000003152070524031142320_);fill:#E30613;" width="9.7" height="9.7"/>
	
		<rect x="76.8" y="142.8" transform="matrix(0.7071 -0.7071 0.7071 0.7071 -80.51 100.9466)" style="clip-path:url(#SVGID_00000082353706412931378020000003152070524031142320_);fill:#E30613;" width="9.7" height="9.7"/>
	
		<rect x="90.5" y="156.5" transform="matrix(0.7071 -0.7071 0.7071 0.7071 -86.1645 114.6445)" style="clip-path:url(#SVGID_00000082353706412931378020000003152070524031142320_);fill:#E30613;" width="9.7" height="9.7"/>
	
		<rect x="49.3" y="129.2" transform="matrix(0.7071 -0.7071 0.7071 0.7071 -78.8988 77.554)" style="clip-path:url(#SVGID_00000082353706412931378020000003152070524031142320_);fill:#E30613;" width="9.7" height="9.7"/>
	
		<rect x="63" y="142.9" transform="matrix(0.7071 -0.7071 0.7071 0.7071 -84.5532 91.2518)" style="clip-path:url(#SVGID_00000082353706412931378020000003152070524031142320_);fill:#E30613;" width="9.7" height="9.7"/>
	
		<rect x="76.7" y="156.5" transform="matrix(0.7071 -0.7071 0.7071 0.7071 -90.2242 104.9429)" style="clip-path:url(#SVGID_00000082353706412931378020000003152070524031142320_);fill:#E30613;" width="9.7" height="9.7"/>
	
		<rect x="90.4" y="170.2" transform="matrix(0.7071 -0.7071 0.7071 0.7071 -95.8787 118.6405)" style="clip-path:url(#SVGID_00000082353706412931378020000003152070524031142320_);fill:#E30613;" width="9.7" height="9.7"/>
	<g style="clip-path:url(#SVGID_00000082353706412931378020000003152070524031142320_);">
		<defs>
			<rect id="SVGID_00000125590726197198700530000009849100033757229734_" x="19.2" y="71.8" width="152.2" height="110.1"/>
		</defs>
		<clipPath id="SVGID_00000084522039831358609640000007180707322618188440_">
			<use xlink:href="#SVGID_00000125590726197198700530000009849100033757229734_"  style="overflow:visible;"/>
		</clipPath>
		
			<rect x="56.5" y="88.1" transform="matrix(0.7071 -0.7071 0.7071 0.7071 -61.7903 104.5611)" style="clip-path:url(#SVGID_00000084522039831358609640000007180707322618188440_);fill:none;stroke:#1D1D1B;stroke-width:0.202;" width="77.6" height="77.6"/>
		<defs>
			<filter id="Adobe_OpacityMaskFilter" filterUnits="userSpaceOnUse" x="46.3" y="116.7" width="103.8" height="33.2">
				<feColorMatrix  type="matrix" values="1 0 0 0 0  0 1 0 0 0  0 0 1 0 0  0 0 0 1 0"/>
			</filter>
		</defs>
		
			<mask maskUnits="userSpaceOnUse" x="46.3" y="116.7" width="103.8" height="33.2" id="SVGID_00000062161311848623101560000009271410208072179346_">
			<g class="st4">
				<g>
					<defs>
						<rect id="SVGID_00000063633108270579238210000005925047876392137402_" x="9.3" y="105.3" width="178.3" height="56.5"/>
					</defs>
					
						<clipPath id="SVGID_00000123442690230011968990000003583189902550845321_" style="clip-path:url(#SVGID_00000084522039831358609640000007180707322618188440_);">
						<use xlink:href="#SVGID_00000063633108270579238210000005925047876392137402_"  style="overflow:visible;"/>
					</clipPath>
					<g style="clip-path:url(#SVGID_00000123442690230011968990000003583189902550845321_);">
						
							<image style="overflow:visible;" width="328" height="104" xlink:href="8868DE158FECFCC0.jpg"  transform="matrix(0.5436 0 0 0.5436 9.3402 105.2787)">
						</image>
					</g>
				</g>
			</g>
		</mask>
		
			<g style="clip-path:url(#SVGID_00000084522039831358609640000007180707322618188440_);mask:url(#SVGID_00000062161311848623101560000009271410208072179346_);">
			<g>
				<defs>
					<rect id="SVGID_00000160185308659430769280000014755245884417433733_" x="46.3" y="116.7" width="103.8" height="33.2"/>
				</defs>
				<clipPath id="SVGID_00000062884406796326939890000001755349169369522860_">
					<use xlink:href="#SVGID_00000160185308659430769280000014755245884417433733_"  style="overflow:visible;"/>
				</clipPath>
				
					<rect x="46.3" y="116.7" style="opacity:0.75;clip-path:url(#SVGID_00000062884406796326939890000001755349169369522860_);fill:#1D1D1B;" width="103.8" height="33.2"/>
			</g>
		</g>
		<g style="clip-path:url(#SVGID_00000084522039831358609640000007180707322618188440_);">
			<text transform="matrix(1 0 0 1 44.044 143.9462)" class="st8 st9 st10">chess</text>
		</g>
	</g>
	<g style="clip-path:url(#SVGID_00000082353706412931378020000003152070524031142320_);">
		<text transform="matrix(1 0 0 1 44.044 143.9462)" class="st11 st9 st10">chess</text>
	</g>
	<g style="clip-path:url(#SVGID_00000082353706412931378020000003152070524031142320_);">
		<defs>
			<rect id="SVGID_00000173159685967012383290000014686533421219473844_" x="19.2" y="71.8" width="152.2" height="110.1"/>
		</defs>
		<clipPath id="SVGID_00000125586284045546805820000016989764716093842860_">
			<use xlink:href="#SVGID_00000173159685967012383290000014686533421219473844_"  style="overflow:visible;"/>
		</clipPath>
		<defs>
			
				<filter id="Adobe_OpacityMaskFilter_00000175314843131398155420000002936705244746127016_" filterUnits="userSpaceOnUse" x="58.9" y="95.7" width="73.9" height="15.8">
				<feColorMatrix  type="matrix" values="1 0 0 0 0  0 1 0 0 0  0 0 1 0 0  0 0 0 1 0"/>
			</filter>
		</defs>
		
			<mask maskUnits="userSpaceOnUse" x="58.9" y="95.7" width="73.9" height="15.8" id="SVGID_00000149358051114213986390000010312116639004933536_">
			<g style="filter:url(#Adobe_OpacityMaskFilter_00000175314843131398155420000002936705244746127016_);">
				<g>
					<defs>
						<rect id="SVGID_00000129904346413889381090000002951831784722558340_" x="38.2" y="79.4" width="121.8" height="39.1"/>
					</defs>
					
						<clipPath id="SVGID_00000090976819694369893710000007643512872992063632_" style="clip-path:url(#SVGID_00000125586284045546805820000016989764716093842860_);">
						<use xlink:href="#SVGID_00000129904346413889381090000002951831784722558340_"  style="overflow:visible;"/>
					</clipPath>
					<g style="clip-path:url(#SVGID_00000090976819694369893710000007643512872992063632_);">
						
							<image style="overflow:visible;" width="224" height="72" xlink:href="8868DE158FECFCC1.jpg"  transform="matrix(0.5436 0 0 0.5436 38.225 79.3923)">
						</image>
					</g>
				</g>
			</g>
		</mask>
		
			<g style="clip-path:url(#SVGID_00000125586284045546805820000016989764716093842860_);mask:url(#SVGID_00000149358051114213986390000010312116639004933536_);">
			<g>
				<defs>
					<rect id="SVGID_00000181796277836069562170000017809327231397122436_" x="58.9" y="95.7" width="73.9" height="15.8"/>
				</defs>
				<clipPath id="SVGID_00000042734151690354948640000015702147465227543430_">
					<use xlink:href="#SVGID_00000181796277836069562170000017809327231397122436_"  style="overflow:visible;"/>
				</clipPath>
				
					<rect x="58.9" y="95.7" style="opacity:0.75;clip-path:url(#SVGID_00000042734151690354948640000015702147465227543430_);fill:#1D1D1B;" width="73.9" height="15.8"/>
			</g>
		</g>
	</g>
	
		<rect x="60.5" y="96.3" style="clip-path:url(#SVGID_00000082353706412931378020000003152070524031142320_);fill:#FFFFFF;" width="8.5" height="10.9"/>
	
		<rect x="75.5" y="96.3" style="clip-path:url(#SVGID_00000082353706412931378020000003152070524031142320_);fill:#FFFFFF;" width="8.5" height="10.9"/>
	
		<rect x="90.4" y="96.2" style="clip-path:url(#SVGID_00000082353706412931378020000003152070524031142320_);fill:#FFFFFF;" width="8.5" height="10.9"/>
	
		<rect x="105.4" y="96.3" style="clip-path:url(#SVGID_00000082353706412931378020000003152070524031142320_);fill:#FFFFFF;" width="8.5" height="10.9"/>
	
		<rect x="120.3" y="96.3" style="clip-path:url(#SVGID_00000082353706412931378020000003152070524031142320_);fill:#FFFFFF;" width="8.5" height="10.9"/>
	<g style="clip-path:url(#SVGID_00000082353706412931378020000003152070524031142320_);">
		<text transform="matrix(1 0 0 1 57.2994 105.5575)" class="st17 st18 st19">A</text>
	</g>
	<g style="clip-path:url(#SVGID_00000082353706412931378020000003152070524031142320_);">
		<text transform="matrix(1 0 0 1 71.9859 105.3666)" class="st17 st18 st19">L</text>
	</g>
	<g style="clip-path:url(#SVGID_00000082353706412931378020000003152070524031142320_);">
		<text transform="matrix(1 0 0 1 86.7999 105.5575)" class="st17 st18 st19">PHA</text>
	</g>
	
		<rect x="66.2" y="163.6" style="clip-path:url(#SVGID_00000082353706412931378020000003152070524031142320_);fill:#E30613;" width="55.4" height="7.5"/>
	<g style="clip-path:url(#SVGID_00000082353706412931378020000003152070524031142320_);">
		<text transform="matrix(1 0 0 1 70.7505 169.8807)" class="st11 st20 st21">AI chess revolution</text>
	</g>
</g>
<g>
	<g>
		<defs>
			
				<filter id="Adobe_OpacityMaskFilter_00000099636604102356513360000013513230067218884993_" filterUnits="userSpaceOnUse" x="5.7" y="10.8" width="101.4" height="69.9">
				<feColorMatrix  type="matrix" values="1 0 0 0 0  0 1 0 0 0  0 0 1 0 0  0 0 0 1 0"/>
			</filter>
		</defs>
		
			<mask maskUnits="userSpaceOnUse" x="5.7" y="10.8" width="101.4" height="69.9" id="SVGID_00000041978246330744045750000016343601368422591362_">
			<g style="filter:url(#Adobe_OpacityMaskFilter_00000099636604102356513360000013513230067218884993_);">
				<g>
					<defs>
						<rect id="SVGID_00000075141060560446789630000016082260311770070453_" x="-5.9" y="-11.3" width="359" height="114.2"/>
					</defs>
					<clipPath id="SVGID_00000138561417549177587880000017700103897558535091_">
						<use xlink:href="#SVGID_00000075141060560446789630000016082260311770070453_"  style="overflow:visible;"/>
					</clipPath>
					<g transform="matrix(1 0 0 1 0 0)" style="clip-path:url(#SVGID_00000138561417549177587880000017700103897558535091_);">
						
							<image style="overflow:visible;" width="616" height="196" xlink:href="8868DE158FECFCC7.jpg"  transform="matrix(0.5828 0 0 0.5828 -5.9415 -11.3066)">
						</image>
					</g>
				</g>
			</g>
		</mask>
		<g style="mask:url(#SVGID_00000041978246330744045750000016343601368422591362_);">
			<g>
				<defs>
					<rect id="SVGID_00000049922643511627323290000001481798821470428826_" x="5.7" y="10.8" width="101.4" height="69.9"/>
				</defs>
				<clipPath id="SVGID_00000140693807562569782540000018441875142713505671_">
					<use xlink:href="#SVGID_00000049922643511627323290000001481798821470428826_"  style="overflow:visible;"/>
				</clipPath>
				
					<rect x="5.7" y="10.8" style="opacity:0.75;clip-path:url(#SVGID_00000140693807562569782540000018441875142713505671_);fill:#1D1D1B;" width="101.4" height="69.9"/>
			</g>
		</g>
	</g>
	<g>
		<g>
			<defs>
				
					<filter id="Adobe_OpacityMaskFilter_00000156566431005278098990000008188843210602120852_" filterUnits="userSpaceOnUse" x="100.7" y="10.9" width="89.2" height="71.7">
					<feColorMatrix  type="matrix" values="1 0 0 0 0  0 1 0 0 0  0 0 1 0 0  0 0 0 1 0"/>
				</filter>
			</defs>
			
				<mask maskUnits="userSpaceOnUse" x="100.7" y="10.9" width="89.2" height="71.7" id="SVGID_00000033361126295125083620000010298976148908044474_">
				<g style="filter:url(#Adobe_OpacityMaskFilter_00000156566431005278098990000008188843210602120852_);">
					<g>
						<defs>
							<rect id="SVGID_00000036943068391128358100000000414553785246276998_" x="83.3" y="-11.8" width="366" height="111.9"/>
						</defs>
						<clipPath id="SVGID_00000077310974482988266430000005571225701242988196_">
							<use xlink:href="#SVGID_00000036943068391128358100000000414553785246276998_"  style="overflow:visible;"/>
						</clipPath>
						<g transform="matrix(1 0 0 1 0 0)" style="clip-path:url(#SVGID_00000077310974482988266430000005571225701242988196_);">
							
								<image style="overflow:visible;" width="628" height="192" xlink:href="8868DE158FECFCC2.jpg"  transform="matrix(0.5828 0 0 0.5828 83.2584 -11.7825)">
							</image>
						</g>
					</g>
				</g>
			</mask>
			<g style="mask:url(#SVGID_00000033361126295125083620000010298976148908044474_);">
				<g>
					<defs>
						<rect id="SVGID_00000086668575389106397260000008837772397897952391_" x="100.7" y="10.9" width="89.2" height="71.7"/>
					</defs>
					<clipPath id="SVGID_00000106864441607633864130000001361946052125455805_">
						<use xlink:href="#SVGID_00000086668575389106397260000008837772397897952391_"  style="overflow:visible;"/>
					</clipPath>
					
						<rect x="100.7" y="10.9" style="opacity:0.75;clip-path:url(#SVGID_00000106864441607633864130000001361946052125455805_);fill:#1D1D1B;" width="89.2" height="71.7"/>
				</g>
			</g>
		</g>
	</g>
	<text transform="matrix(1 0 0 1 10.644 71.9955)"><tspan x="0" y="0" class="st28 st29 st30">D</tspan><tspan x="48.3" y="0" class="st31 st29 st32">roid</tspan></text>
	<text transform="matrix(1 0 0 1 103.7354 71.9955)"><tspan x="0" y="0" class="st28 st29 st30">S</tspan><tspan x="31.8" y="0" class="st31 st29 st32">hash</tspan></text>
</g>
</svg>
