<?xml version="1.0" encoding="utf-8"?>
<!-- Generator: Adobe Illustrator 26.0.1, SVG Export Plug-In . SVG Version: 6.00 Build 0)  -->
<svg version="1.1" id="Livello_1" xmlns="http://www.w3.org/2000/svg" xmlns:xlink="http://www.w3.org/1999/xlink" x="0px" y="0px"
	 viewBox="0 0 1500 1500" style="enable-background:new 0 0 1500 1500;" xml:space="preserve">
<style type="text/css">
	.st0{fill:#164194;}
	.st1{fill:#F39200;}
	.st2{fill:none;}
	.st3{font-family:'Athelas-Regular';}
	.st4{font-size:965.5608px;}
	.st5{font-size:939.1102px;}
</style>
<path class="st0" d="M1437.1,1432.9H797c-6.6,0-12-5.4-12-12V769.1c0-6.6,5.4-12,12-12h640.2c6.6,0,12,5.4,12,12v651.8
	C1449.1,1427.5,1443.7,1432.9,1437.1,1432.9z"/>
<path class="st0" d="M1038.3,710.3l5-67.5c0,0,3.9-6.4-5-6.6c-31.7-0.9-68.5-0.1-67.5-25.6c1-26.3,16.5-31.1,25.7-31.1
	c9.1,0,31.9,0.9,31.9,0.9l-2-110.5l-98.2-123.4c-0.5-0.6-1.2-1-2-0.8c-1.7,0.4-5-16.5-5-36.4c0-26.5,40.7-42.5,40.7-42.5h68.5
	l-1-28.3h7.9l2-7.6h153.8v8.5l11.9-0.9v30.1l63.5-1.9c0,0,13.1,5.6,32.7,31.2c18.8,24.6,12.4,25.9,0,47.2
	c-13.2,22.7-92.3,125.4-92.3,125.4l-1,112.7c0,0,53.4-12.3,54.6,27.4c1,33.1-26.8,25.5-26.8,25.5H1194l4,74.1L1038.3,710.3
	L1038.3,710.3z"/>
<path class="st1" d="M759.6,760.6H88.4c-6.6,0-12-5.4-12-12V77.3c0-6.6,5.4-12,12-12h671.2c6.6,0,12,5.4,12,12v671.2
	C771.6,755.2,766.2,760.6,759.6,760.6z"/>
<rect x="62.7" y="48.7" class="st2" width="735.6" height="753"/>
<text transform="matrix(1 0 0 1 62.6958 724.5785)" class="st0 st3 st4">D</text>
<rect x="871.9" y="735.6" class="st2" width="615.2" height="674.8"/>
<text transform="matrix(0.9729 0 0 1 871.8728 1399.2689)" class="st1 st3 st5">S</text>
<polygon class="st0" points="1039.5,108.7 1039.5,128.9 1032.4,128.9 1032.4,154.4 1039.5,154.4 1039.5,173.7 1051.7,173.7 
	1083.2,152.4 1101.4,149.3 1101.4,156.4 1108.5,156.4 1108.5,173.7 1082.2,202.1 1081.1,209.2 1100.4,209.2 1098.4,218.3 
	1133.7,218.3 1132.9,210.2 1155.2,211.2 1155.2,201.1 1129.8,175.7 1129.8,157.4 1134.9,156.4 1134.9,149.3 1155.2,150.3 
	1186.7,173.7 1195.8,173.7 1195.8,149.3 1201.9,147.3 1201.9,134.3 1194.8,134.3 1196.8,108.7 1187.7,108.7 1149.1,134.3 
	1133.7,134.3 1133.7,128.9 1127.8,128.9 1128.8,108.7 1158.2,72.2 1145.1,72.2 1141,65.3 1094.3,65.3 1093.3,73.2 1082.2,72.2 
	1083.2,82.4 1109.5,106.7 1110.6,128.9 1079.1,128.9 1047.7,106.7 "/>
<path class="st1" d="M504.5,801.7l-5.1,68.5c0,0-4,6.5,5.1,6.7c32.4,0.9,70,0.1,68.9,26c-1.1,26.7-16.9,31.5-26.2,31.5
	s-32.6-1-32.6-1l2,112.1l100.2,125.2c0.5,0.6,1.3,1,2,0.9c1.7-0.4,5.1,16.8,5.1,36.9c0,26.8-41.5,43.1-41.5,43.1h-69.9l1,28.8h-8.1
	l-2,7.7h-157v-8.6l-12.2,1v-30.7l-64.8,1.9c0,0-13.4-5.7-33.4-31.6c-19.2-24.9-12.7-26.3,0-47.9c13.5-23,94.2-127.2,94.2-127.2
	l1-114.3c0,0-54.5,12.5-55.7-27.8c-1-33.5,27.4-25.9,27.4-25.9h42.5l-4.1-75.2h163.2V801.7z"/>
<polygon class="st1" points="503.3,1411.9 503.3,1391.4 510.5,1391.4 510.5,1365.5 503.3,1365.5 503.3,1346 490.8,1346 
	458.7,1367.6 440.1,1370.7 440.1,1363.5 432.8,1363.5 432.8,1346 459.8,1317.2 460.8,1310 441.1,1310 443.2,1300.7 407.2,1300.7 
	408,1308.9 385.2,1307.9 385.2,1318.2 411.1,1343.9 411.1,1362.5 405.9,1363.5 405.9,1370.7 385.2,1369.7 353.1,1346 343.7,1346 
	343.7,1370.7 337.5,1372.7 337.5,1385.9 344.8,1385.9 342.7,1411.9 352,1411.9 391.4,1385.9 407.2,1385.9 407.2,1391.4 
	413.1,1391.4 412.1,1411.9 382.1,1448.9 395.5,1448.9 399.7,1455.9 447.3,1455.9 448.4,1447.9 459.8,1448.9 458.7,1438.6 
	431.8,1413.9 430.8,1391.4 462.9,1391.4 495,1413.9 "/>
</svg>
