<?xml version="1.0" encoding="utf-8"?>
<!-- Generator: Adobe Illustrator 26.0.1, SVG Export Plug-In . SVG Version: 6.00 Build 0)  -->
<svg version="1.1" id="Livello_1" xmlns="http://www.w3.org/2000/svg" xmlns:xlink="http://www.w3.org/1999/xlink" x="0px" y="0px"
	 viewBox="0 0 1624 1624" style="enable-background:new 0 0 1624 1624;" xml:space="preserve">
<style type="text/css">
	.st0{fill:#164194;}
	.st1{fill:#F39200;}
	.st2{fill:none;}
	.st3{font-family:'Athelas-Regular';}
	.st4{font-size:1079.8046px;}
	.st5{font-size:1050.2244px;}
</style>
<path class="st0" d="M1567.3,1565.6H848.6c-6.6,0-12-5.4-12-12V821.8c0-6.6,5.4-12,12-12h718.7c6.6,0,12,5.4,12,12v731.8
	C1579.3,1560.2,1573.9,1565.6,1567.3,1565.6z"/>
<path class="st0" d="M1105.6,768l5.5-75.5c0,0,4.4-7.1-5.5-7.4c-35.5-1-76.6-0.1-75.5-28.7c1.2-29.4,18.5-34.7,28.7-34.7
	s35.7,1.1,35.7,1.1l-2.2-123.6l-109.8-138c-0.5-0.7-1.4-1.1-2.2-0.9c-1.9,0.4-5.6-18.5-5.6-40.7c0-29.6,45.5-47.5,45.5-47.5h76.5
	l-1.1-31.7h8.9l2.2-8.5h172v9.5l13.3-1.1v33.8l71-2.1c0,0,14.7,6.3,36.6,34.9c21.1,27.5,13.9,29,0,52.8
	c-14.8,25.4-103.2,140.2-103.2,140.2l-1.1,126c0,0,59.7-13.8,61,30.6c1.1,37-30,28.5-30,28.5h-46.6l4.4,82.9h-178.5V768z"/>
<path class="st1" d="M818.6,823.5H65.1c-6.6,0-12-5.4-12-12V58c0-6.6,5.4-12,12-12h753.5c6.6,0,12,5.4,12,12v753.5
	C830.6,818.1,825.2,823.5,818.6,823.5z"/>
<rect x="37.8" y="27.4" class="st2" width="822.7" height="842.1"/>
<text transform="matrix(1 0 0 1 37.7962 783.2828)" class="st0 st3 st4">D</text>
<rect x="933.8" y="785.8" class="st2" width="688" height="754.7"/>
<text transform="matrix(0.9729 0 0 1 933.7733 1527.9591)" class="st1 st3 st5">S</text>
<polygon class="st0" points="1107,95.3 1107,117.9 1099,117.9 1099,146.4 1107,146.4 1107,167.9 1120.6,167.9 1155.8,144.1 
	1176.2,140.7 1176.2,148.6 1184.1,148.6 1184.1,167.9 1154.6,199.7 1153.5,207.6 1175,207.6 1172.8,217.8 1212.2,217.8 
	1211.3,208.8 1236.3,209.9 1236.3,198.6 1207.9,170.2 1207.9,149.8 1213.6,148.6 1213.6,140.7 1236.3,141.8 1271.5,167.9 
	1281.7,167.9 1281.7,140.7 1288.5,138.4 1288.5,123.9 1280.6,123.9 1282.8,95.3 1272.6,95.3 1229.5,123.9 1212.2,123.9 
	1212.2,117.9 1205.7,117.9 1206.8,95.3 1239.7,54.5 1225,54.5 1220.4,46.7 1168.2,46.7 1167.1,55.6 1154.6,54.5 1155.8,65.8 
	1185.2,93 1186.4,117.9 1151.2,117.9 1116,93 "/>
<path class="st1" d="M531.9,869.5l-5.7,76.6c0,0-4.5,7.2,5.7,7.5c36.2,1,78.2,0.1,77.1,29.1c-1.2,29.9-18.9,35.2-29.3,35.2
	c-10.4,0-36.5-1.1-36.5-1.1l2.3,125.4l112.1,140c0.5,0.7,1.4,1.1,2.3,1c1.9-0.4,5.7,18.8,5.7,41.3c0,30-46.4,48.2-46.4,48.2H541
	l1.1,32.2H533l-2.3,8.6H355.2v-9.6l-13.6,1.1v-34.3l-72.5,2.1c0,0-15-6.3-37.4-35.4c-21.5-27.9-14.2-29.4,0-53.6
	c15.1-25.7,105.4-142.3,105.4-142.3l1.1-127.9c0,0-60.9,14-62.3-31.1c-1.1-37.5,30.6-28.9,30.6-28.9H354l-4.5-84.1L531.9,869.5
	L531.9,869.5z"/>
<polygon class="st1" points="530.5,1551.9 530.5,1529 538.6,1529 538.6,1500.1 530.5,1500.1 530.5,1478.2 516.6,1478.2 
	480.7,1502.4 459.8,1505.8 459.8,1497.8 451.7,1497.8 451.7,1478.2 481.8,1446 483,1437.9 461,1437.9 463.3,1427.6 423,1427.6 
	423.9,1436.8 398.4,1435.6 398.4,1447.1 427.4,1475.9 427.4,1496.6 421.6,1497.8 421.6,1505.8 398.4,1504.7 362.5,1478.2 
	352.1,1478.2 352.1,1505.8 345.1,1508.1 345.1,1522.9 353.2,1522.9 350.9,1551.9 361.4,1551.9 405.4,1522.9 423,1522.9 423,1529 
	429.7,1529 428.5,1551.9 394.9,1593.3 410,1593.3 414.6,1601.2 467.9,1601.2 469.1,1592.2 481.8,1593.3 480.7,1581.8 450.6,1554.2 
	449.4,1529 485.3,1529 521.2,1554.2 "/>
</svg>
