<?xml version="1.0" encoding="utf-8"?>
<!-- Generator: Adobe Illustrator 26.0.1, SVG Export Plug-In . SVG Version: 6.00 Build 0)  -->
<svg version="1.1"
	 id="svg2" inkscape:export-filename="silhouette.png" inkscape:export-xdpi="16.875" inkscape:export-ydpi="16.875" inkscape:version="0.91 r13725" sodipodi:docname="silhouette.svg" xmlns:cc="http://creativecommons.org/ns#" xmlns:dc="http://purl.org/dc/elements/1.1/" xmlns:inkscape="http://www.inkscape.org/namespaces/inkscape" xmlns:rdf="http://www.w3.org/1999/02/22-rdf-syntax-ns#" xmlns:sodipodi="http://sodipodi.sourceforge.net/DTD/sodipodi-0.dtd" xmlns:svg="http://www.w3.org/2000/svg"
	 xmlns="http://www.w3.org/2000/svg" xmlns:xlink="http://www.w3.org/1999/xlink" x="0px" y="0px" viewBox="0 0 192 192"
	 style="enable-background:new 0 0 192 192;" xml:space="preserve">
<style type="text/css">
	.st0{fill:#164194;}
	.st1{fill:#F39200;}
	.st2{fill:none;}
	.st3{font-family:'Athelas-Regular';}
	.st4{font-size:121.9869px;}
	.st5{font-size:118.6452px;}
</style>
<path class="st0" d="M167.9,180.5H108c-6.6,0-12-5.4-12-12v-61.4c0-6.6,5.4-12,12-12h59.9c6.6,0,12,5.4,12,12v61.4
	C179.9,175.1,174.5,180.5,167.9,180.5z"/>
<path class="st0" d="M128,89.9l0.6-8.5c0,0,0.5-0.8-0.6-0.8c-4-0.1-8.7,0-8.5-3.2c0.1-3.3,2.1-3.9,3.2-3.9s4,0.1,4,0.1l-0.3-14
	l-12.4-15.6c-0.1-0.1-0.2-0.1-0.2-0.1c-0.2,0-0.6-2.1-0.6-4.6c0-3.3,5.1-5.4,5.1-5.4h8.6l-0.1-3.6h1l0.3-1h19.4v1.1l1.5-0.1v3.8
	l8-0.2c0,0,1.7,0.7,4.1,3.9c2.4,3.1,1.6,3.3,0,6c-1.7,2.9-11.7,15.8-11.7,15.8l-0.1,14.2c0,0,6.7-1.6,6.9,3.5
	c0.1,4.2-3.4,3.2-3.4,3.2h-5.3l0.5,9.4H128z"/>
<path class="st1" d="M84.9,98.3H21.1c-6.6,0-12-5.4-12-12V22.5c0-6.6,5.4-12,12-12h63.8c6.6,0,12,5.4,12,12v63.8
	C96.9,92.9,91.5,98.3,84.9,98.3z"/>
<rect x="7.3" y="8.4" class="st2" width="92.9" height="95.1"/>
<text transform="matrix(1 0 0 1 7.3307 93.7734)" class="st0 st3 st4">D</text>
<rect x="106.9" y="92.5" class="st2" width="77.7" height="85.3"/>
<text transform="matrix(0.9729 0 0 1 106.9459 176.2954)" class="st1 st3 st5">S</text>
<polygon class="st0" points="128.1,13.9 128.1,16.4 127.2,16.4 127.2,19.6 128.1,19.6 128.1,22.1 129.7,22.1 133.6,19.4 135.9,19 
	135.9,19.9 136.8,19.9 136.8,22.1 133.5,25.7 133.4,26.6 135.8,26.6 135.6,27.7 140,27.7 139.9,26.7 142.7,26.8 142.7,25.5 
	139.5,22.3 139.5,20 140.2,19.9 140.2,19 142.7,19.1 146.7,22.1 147.9,22.1 147.9,19 148.6,18.7 148.6,17.1 147.7,17.1 148,13.9 
	146.8,13.9 142,17.1 140,17.1 140,16.4 139.3,16.4 139.4,13.9 143.1,9.3 141.4,9.3 140.9,8.4 135,8.4 134.9,9.4 133.5,9.3 
	133.6,10.5 137,13.6 137.1,16.4 133.1,16.4 129.1,13.6 "/>
<path class="st1" d="M63.2,103.5l-0.6,8.7c0,0-0.5,0.8,0.6,0.8c4.1,0.1,8.8,0,8.7,3.3c-0.1,3.4-2.1,4-3.3,4c-1.2,0-4.1-0.1-4.1-0.1
	l0.3,14.2l12.7,15.8c0.1,0.1,0.2,0.1,0.3,0.1c0.2,0,0.6,2.1,0.6,4.7c0,3.4-5.2,5.4-5.2,5.4h-8.8l0.1,3.6h-1l-0.3,1H43.2v-1.1
	l-1.5,0.1v-3.9l-8.2,0.2c0,0-1.7-0.7-4.2-4c-2.4-3.1-1.6-3.3,0-6.1c1.7-2.9,11.9-16.1,11.9-16.1l0.1-14.4c0,0-6.9,1.6-7-3.5
	c-0.1-4.2,3.5-3.3,3.5-3.3h5.4l-0.5-9.5H63.2z"/>
<polygon class="st1" points="63,180.6 63,178 63.9,178 63.9,174.8 63,174.8 63,172.3 61.4,172.3 57.4,175 55,175.4 55,174.5 
	54.1,174.5 54.1,172.3 57.5,168.6 57.6,167.7 55.1,167.7 55.4,166.6 50.9,166.6 51,167.6 48.1,167.5 48.1,168.8 51.3,172 
	51.3,174.4 50.7,174.5 50.7,175.4 48.1,175.3 44,172.3 42.8,172.3 42.8,175.4 42.1,175.7 42.1,177.3 43,177.3 42.7,180.6 
	43.9,180.6 48.9,177.3 50.9,177.3 50.9,178 51.6,178 51.5,180.6 47.7,185.3 49.4,185.3 49.9,186.2 55.9,186.2 56.1,185.2 
	57.5,185.3 57.4,184 54,180.9 53.8,178 57.9,178 61.9,180.9 "/>
</svg>
